ISO-10303-21;
HEADER;
FILE_DESCRIPTION(('CATIA V5 STEP Exchange','CAx-IF Rec.Pracs.--- Model Styling and Organization---1.4--- 2014-01-23','CAx-IF Rec.Pracs.---3D Tessellated Data Validation Properties---0.5---2014-09-14'),'2;1');

FILE_NAME('E:\\shenshujun\\\X2\667A80FD88C5914D\X0\\\\X2\4E2D592E901A905352A05F3A677F\X0\\\Q37108.stp','2026-09-08T09:12:51+00:00',('none'),('none'),'CATIA Version 5-6 Release 2018','CATIA V5 STEP AP242','none');

FILE_SCHEMA(('AP242_MANAGED_MODEL_BASED_3D_ENGINEERING_MIM_LF  {1 0 10303 442 1 1 4}'));

ENDSEC;
DATA;
#5=PRODUCT('Q37108','','',(#2)) ;
#2=PRODUCT_CONTEXT(' ',#1,'mechanical') ;
#1=APPLICATION_CONTEXT('managed model based 3d engineering') ;
#10=PRODUCT_DEFINITION('',' ',#6,#3) ;
#3=PRODUCT_DEFINITION_CONTEXT('part definition',#1,' ') ;
#11=PRODUCT_DEFINITION_SHAPE(' ',' ',#10) ;
#608=MECHANICAL_DESIGN_GEOMETRIC_PRESENTATION_REPRESENTATION(' ',(#29),#16) ;
#19=SHAPE_REPRESENTATION(' ',(#18),#16) ;
#7=PRODUCT_CATEGORY('part','specification') ;
#17=CARTESIAN_POINT(' ',(0.,0.,0.)) ;
#31=CARTESIAN_POINT('Axis2P3D Location',(6.5,4.66152236891,4.66152236891)) ;
#36=CARTESIAN_POINT('Axis2P3D Location',(6.5,0.,0.)) ;
#40=CARTESIAN_POINT('Vertex',(6.5,1.09980979801,-6.5)) ;
#42=CARTESIAN_POINT('Vertex',(6.5,6.5,-1.09980979801)) ;
#45=CARTESIAN_POINT('Line Origine',(6.5,6.5,0.)) ;
#49=CARTESIAN_POINT('Vertex',(6.5,6.5,1.09980979801)) ;
#52=CARTESIAN_POINT('Axis2P3D Location',(6.5,0.,0.)) ;
#56=CARTESIAN_POINT('Vertex',(6.5,1.85601787039,6.32572361525)) ;
#59=CARTESIAN_POINT('Axis2P3D Location',(6.5,0.,0.)) ;
#63=CARTESIAN_POINT('Vertex',(6.5,1.09980979801,6.5)) ;
#66=CARTESIAN_POINT('Line Origine',(6.5,2.22044604925E-016,6.5)) ;
#70=CARTESIAN_POINT('Vertex',(6.5,-1.09980979801,6.5)) ;
#73=CARTESIAN_POINT('Axis2P3D Location',(6.5,0.,0.)) ;
#77=CARTESIAN_POINT('Vertex',(6.5,-6.5,1.09980979801)) ;
#80=CARTESIAN_POINT('Line Origine',(6.5,-6.5,1.7763568394E-015)) ;
#84=CARTESIAN_POINT('Vertex',(6.5,-6.5,-1.09980979801)) ;
#87=CARTESIAN_POINT('Axis2P3D Location',(6.5,0.,0.)) ;
#91=CARTESIAN_POINT('Vertex',(6.5,-1.85601787039,-6.32572361525)) ;
#94=CARTESIAN_POINT('Axis2P3D Location',(6.5,0.,0.)) ;
#98=CARTESIAN_POINT('Vertex',(6.5,-1.09980979801,-6.5)) ;
#101=CARTESIAN_POINT('Line Origine',(6.5,-4.4408920985E-016,-6.5)) ;
#118=CARTESIAN_POINT('Axis2P3D Location',(6.5,0.,-8.881784197E-016)) ;
#122=CARTESIAN_POINT('Vertex',(6.5,-4.,4.89858719659E-016)) ;
#124=CARTESIAN_POINT('Vertex',(6.5,4.,0.)) ;
#127=CARTESIAN_POINT('Axis2P3D Location',(6.5,8.881784197E-016,8.881784197E-016)) ;
#137=CARTESIAN_POINT('Axis2P3D Location',(0.,6.5,-6.5)) ;
#143=CARTESIAN_POINT('Control Point',(6.5,1.09980979801,-6.5)) ;
#144=CARTESIAN_POINT('Control Point',(6.56992452723,1.51894556668,-6.5)) ;
#145=CARTESIAN_POINT('Control Point',(6.67406535598,1.94906995932,-6.5)) ;
#146=CARTESIAN_POINT('Control Point',(6.8152252193,2.39701634745,-6.5)) ;
#147=CARTESIAN_POINT('Control Point',(7.04848758893,2.99970881234,-6.5)) ;
#148=CARTESIAN_POINT('Control Point',(7.36995637345,3.66876173,-6.5)) ;
#149=CARTESIAN_POINT('Control Point',(7.44207726754,3.81341256187,-6.5)) ;
#150=CARTESIAN_POINT('Control Point',(7.51864632544,3.96161199421,-6.5)) ;
#151=CARTESIAN_POINT('Control Point',(7.6,4.11373741672,-6.5)) ;
#152=CARTESIAN_POINT('Vertex',(7.6,4.11373741672,-6.5)) ;
#156=CARTESIAN_POINT('Control Point',(6.5,-1.09980979801,-6.5)) ;
#157=CARTESIAN_POINT('Control Point',(6.52628370833,-1.25735741013,-6.5)) ;
#158=CARTESIAN_POINT('Control Point',(6.5574018688,-1.41645761485,-6.5)) ;
#159=CARTESIAN_POINT('Control Point',(6.5935108453,-1.57750889079,-6.5)) ;
#160=CARTESIAN_POINT('Control Point',(6.63482036394,-1.74091333629,-6.5)) ;
#161=CARTESIAN_POINT('Control Point',(6.68162310661,-1.90715195467,-6.5)) ;
#162=CARTESIAN_POINT('Vertex',(6.68162310661,-1.90715195467,-6.5)) ;
#166=CARTESIAN_POINT('Control Point',(6.68162310661,-1.90715195467,-6.5)) ;
#167=CARTESIAN_POINT('Control Point',(6.79269007763,-2.3016506262,-6.5)) ;
#168=CARTESIAN_POINT('Control Point',(6.93469239781,-2.71211009422,-6.5)) ;
#169=CARTESIAN_POINT('Control Point',(7.11139372873,-3.14444234686,-6.5)) ;
#170=CARTESIAN_POINT('Control Point',(7.32918743137,-3.60733771633,-6.5)) ;
#171=CARTESIAN_POINT('Control Point',(7.6,-4.11373741672,-6.5)) ;
#172=CARTESIAN_POINT('Vertex',(7.6,-4.11373741672,-6.5)) ;
#175=CARTESIAN_POINT('Line Origine',(7.6,-5.30686870836,-6.5)) ;
#179=CARTESIAN_POINT('Vertex',(7.6,-6.5,-6.5)) ;
#182=CARTESIAN_POINT('Line Origine',(7.05,-6.5,-6.5)) ;
#186=CARTESIAN_POINT('Vertex',(6.5,-6.5,-6.5)) ;
#189=CARTESIAN_POINT('Line Origine',(3.25,-6.5,-6.5)) ;
#193=CARTESIAN_POINT('Vertex',(0.,-6.5,-6.5)) ;
#196=CARTESIAN_POINT('Line Origine',(0.,-1.42108547152E-014,-6.5)) ;
#200=CARTESIAN_POINT('Vertex',(0.,6.5,-6.5)) ;
#203=CARTESIAN_POINT('Line Origine',(3.25,6.5,-6.5)) ;
#207=CARTESIAN_POINT('Vertex',(6.5,6.5,-6.5)) ;
#210=CARTESIAN_POINT('Line Origine',(7.05,6.5,-6.5)) ;
#214=CARTESIAN_POINT('Vertex',(7.6,6.5,-6.5)) ;
#217=CARTESIAN_POINT('Line Origine',(7.6,5.30686870836,-6.5)) ;
#236=CARTESIAN_POINT('Axis2P3D Location',(6.5,0.,0.)) ;
#241=CARTESIAN_POINT('Line Origine',(7.05,-2.01086461252,-6.85347591175)) ;
#252=CARTESIAN_POINT('Axis2P3D Location',(7.6,0.,0.)) ;
#256=CARTESIAN_POINT('Vertex',(7.6,-6.5,-4.11373741672)) ;
#260=CARTESIAN_POINT('Control Point',(6.5,-6.5,-1.09980979801)) ;
#261=CARTESIAN_POINT('Control Point',(6.6108273709,-6.5,-1.76412198047)) ;
#262=CARTESIAN_POINT('Control Point',(6.81445701606,-6.49999708789,-2.4587441267)) ;
#263=CARTESIAN_POINT('Control Point',(7.11881111854,-6.5,-3.21394939496)) ;
#264=CARTESIAN_POINT('Control Point',(7.6,-6.5,-4.11373741672)) ;
#274=CARTESIAN_POINT('Axis2P3D Location',(0.,-6.5,-6.5)) ;
#280=CARTESIAN_POINT('Control Point',(6.5,-6.5,1.09980979801)) ;
#281=CARTESIAN_POINT('Control Point',(6.56992452723,-6.5,1.51894556669)) ;
#282=CARTESIAN_POINT('Control Point',(6.674065356,-6.5,1.94906995934)) ;
#283=CARTESIAN_POINT('Control Point',(6.81522521928,-6.5,2.39701634742)) ;
#284=CARTESIAN_POINT('Control Point',(7.04848758893,-6.5,2.99970881234)) ;
#285=CARTESIAN_POINT('Control Point',(7.36995637345,-6.5,3.66876173)) ;
#286=CARTESIAN_POINT('Control Point',(7.44207726754,-6.5,3.81341256187)) ;
#287=CARTESIAN_POINT('Control Point',(7.51864632544,-6.5,3.96161199421)) ;
#288=CARTESIAN_POINT('Control Point',(7.6,-6.5,4.11373741672)) ;
#289=CARTESIAN_POINT('Vertex',(7.6,-6.5,4.11373741672)) ;
#292=CARTESIAN_POINT('Line Origine',(7.6,-6.5,5.30686870836)) ;
#296=CARTESIAN_POINT('Vertex',(7.6,-6.5,6.5)) ;
#299=CARTESIAN_POINT('Line Origine',(7.05,-6.5,6.5)) ;
#303=CARTESIAN_POINT('Vertex',(6.5,-6.5,6.5)) ;
#306=CARTESIAN_POINT('Line Origine',(3.25,-6.5,6.5)) ;
#310=CARTESIAN_POINT('Vertex',(0.,-6.5,6.5)) ;
#313=CARTESIAN_POINT('Line Origine',(0.,-6.5,0.)) ;
#318=CARTESIAN_POINT('Line Origine',(7.6,-6.5,-5.30686870836)) ;
#337=CARTESIAN_POINT('Control Point',(6.5,-1.09980979801,6.5)) ;
#338=CARTESIAN_POINT('Control Point',(6.61082737089,-1.7641219804,6.5)) ;
#339=CARTESIAN_POINT('Control Point',(6.8144570161,-2.45874412687,6.49999708789)) ;
#340=CARTESIAN_POINT('Control Point',(7.11881111859,-3.21394939505,6.5)) ;
#341=CARTESIAN_POINT('Control Point',(7.6,-4.11373741672,6.5)) ;
#342=CARTESIAN_POINT('Vertex',(7.6,-4.11373741672,6.5)) ;
#345=CARTESIAN_POINT('Axis2P3D Location',(7.6,0.,0.)) ;
#357=CARTESIAN_POINT('Axis2P3D Location',(0.,-6.5,6.5)) ;
#363=CARTESIAN_POINT('Control Point',(6.5,1.09980979801,6.5)) ;
#364=CARTESIAN_POINT('Control Point',(6.52628370833,1.25735741013,6.5)) ;
#365=CARTESIAN_POINT('Control Point',(6.5574018688,1.41645761485,6.5)) ;
#366=CARTESIAN_POINT('Control Point',(6.5935108453,1.57750889079,6.5)) ;
#367=CARTESIAN_POINT('Control Point',(6.63482036394,1.74091333629,6.5)) ;
#368=CARTESIAN_POINT('Control Point',(6.68162310661,1.90715195467,6.5)) ;
#369=CARTESIAN_POINT('Vertex',(6.68162310661,1.90715195467,6.5)) ;
#373=CARTESIAN_POINT('Control Point',(6.68162310661,1.90715195467,6.5)) ;
#374=CARTESIAN_POINT('Control Point',(6.79269007764,2.30165062623,6.5)) ;
#375=CARTESIAN_POINT('Control Point',(6.93469239786,2.71211009429,6.5)) ;
#376=CARTESIAN_POINT('Control Point',(7.11139372869,3.14444234679,6.5)) ;
#377=CARTESIAN_POINT('Control Point',(7.32918743135,3.6073377163,6.5)) ;
#378=CARTESIAN_POINT('Control Point',(7.6,4.11373741672,6.5)) ;
#379=CARTESIAN_POINT('Vertex',(7.6,4.11373741672,6.5)) ;
#382=CARTESIAN_POINT('Line Origine',(7.6,5.30686870836,6.5)) ;
#386=CARTESIAN_POINT('Vertex',(7.6,6.5,6.5)) ;
#389=CARTESIAN_POINT('Line Origine',(7.05,6.5,6.5)) ;
#393=CARTESIAN_POINT('Vertex',(6.5,6.5,6.5)) ;
#396=CARTESIAN_POINT('Line Origine',(3.25,6.5,6.5)) ;
#400=CARTESIAN_POINT('Vertex',(0.,6.5,6.5)) ;
#403=CARTESIAN_POINT('Line Origine',(0.,0.,6.5)) ;
#408=CARTESIAN_POINT('Line Origine',(7.6,-5.30686870836,6.5)) ;
#427=CARTESIAN_POINT('Line Origine',(7.05,2.01086461252,6.85347591175)) ;
#438=CARTESIAN_POINT('Axis2P3D Location',(7.6,0.,0.)) ;
#442=CARTESIAN_POINT('Vertex',(7.6,6.5,4.11373741672)) ;
#446=CARTESIAN_POINT('Control Point',(6.5,6.5,1.09980979801)) ;
#447=CARTESIAN_POINT('Control Point',(6.61082737088,6.5,1.76412198039)) ;
#448=CARTESIAN_POINT('Control Point',(6.81445701611,6.49999708789,2.45874412691)) ;
#449=CARTESIAN_POINT('Control Point',(7.11881111861,6.5,3.21394939508)) ;
#450=CARTESIAN_POINT('Control Point',(7.6,6.5,4.11373741672)) ;
#460=CARTESIAN_POINT('Axis2P3D Location',(0.,6.5,6.5)) ;
#466=CARTESIAN_POINT('Control Point',(6.5,6.5,-1.09980979801)) ;
#467=CARTESIAN_POINT('Control Point',(6.56992452723,6.5,-1.5189455667)) ;
#468=CARTESIAN_POINT('Control Point',(6.67406535599,6.5,-1.94906995938)) ;
#469=CARTESIAN_POINT('Control Point',(6.81522521929,6.5,-2.39701634742)) ;
#470=CARTESIAN_POINT('Control Point',(7.04848758891,6.5,-2.99970881231)) ;
#471=CARTESIAN_POINT('Control Point',(7.36995637346,6.5,-3.66876173)) ;
#472=CARTESIAN_POINT('Control Point',(7.44207726754,6.5,-3.81341256187)) ;
#473=CARTESIAN_POINT('Control Point',(7.51864632544,6.5,-3.96161199421)) ;
#474=CARTESIAN_POINT('Control Point',(7.6,6.5,-4.11373741672)) ;
#475=CARTESIAN_POINT('Vertex',(7.6,6.5,-4.11373741672)) ;
#478=CARTESIAN_POINT('Line Origine',(7.6,6.5,-5.30686870836)) ;
#483=CARTESIAN_POINT('Line Origine',(0.,6.5,0.)) ;
#488=CARTESIAN_POINT('Line Origine',(7.6,6.5,5.30686870836)) ;
#506=CARTESIAN_POINT('Axis2P3D Location',(7.6,0.,0.)) ;
#518=CARTESIAN_POINT('Axis2P3D Location',(3.8,0.,0.)) ;
#523=CARTESIAN_POINT('Line Origine',(3.8,-4.,4.89858719659E-016)) ;
#527=CARTESIAN_POINT('Vertex',(0.,-4.,4.89858719659E-016)) ;
#530=CARTESIAN_POINT('Axis2P3D Location',(0.,0.,0.)) ;
#534=CARTESIAN_POINT('Vertex',(0.,4.,0.)) ;
#537=CARTESIAN_POINT('Line Origine',(3.8,4.,0.)) ;
#549=CARTESIAN_POINT('Axis2P3D Location',(0.,0.,0.)) ;
#561=CARTESIAN_POINT('Axis2P3D Location',(7.6,6.5,6.5)) ;
#572=CARTESIAN_POINT('Axis2P3D Location',(0.,0.,0.)) ;
#8=PRODUCT_RELATED_PRODUCT_CATEGORY('part',$,(#5)) ;
#29=STYLED_ITEM(' ',(#28),#21) ;
#28=PRESENTATION_STYLE_ASSIGNMENT((#27)) ;
#27=SURFACE_STYLE_USAGE(.BOTH.,#26) ;
#26=SURFACE_SIDE_STYLE(' ',(#25)) ;
#25=SURFACE_STYLE_FILL_AREA(#24) ;
#24=FILL_AREA_STYLE(' ',(#23)) ;
#23=FILL_AREA_STYLE_COLOUR(' ',#22) ;
#47=VECTOR('Line Direction',#46,1.) ;
#68=VECTOR('Line Direction',#67,1.) ;
#82=VECTOR('Line Direction',#81,1.) ;
#103=VECTOR('Line Direction',#102,1.) ;
#177=VECTOR('Line Direction',#176,1.) ;
#184=VECTOR('Line Direction',#183,1.) ;
#191=VECTOR('Line Direction',#190,1.) ;
#198=VECTOR('Line Direction',#197,1.) ;
#205=VECTOR('Line Direction',#204,1.) ;
#212=VECTOR('Line Direction',#211,1.) ;
#219=VECTOR('Line Direction',#218,1.) ;
#243=VECTOR('Line Direction',#242,1.) ;
#294=VECTOR('Line Direction',#293,1.) ;
#301=VECTOR('Line Direction',#300,1.) ;
#308=VECTOR('Line Direction',#307,1.) ;
#315=VECTOR('Line Direction',#314,1.) ;
#320=VECTOR('Line Direction',#319,1.) ;
#384=VECTOR('Line Direction',#383,1.) ;
#391=VECTOR('Line Direction',#390,1.) ;
#398=VECTOR('Line Direction',#397,1.) ;
#405=VECTOR('Line Direction',#404,1.) ;
#410=VECTOR('Line Direction',#409,1.) ;
#429=VECTOR('Line Direction',#428,1.) ;
#480=VECTOR('Line Direction',#479,1.) ;
#485=VECTOR('Line Direction',#484,1.) ;
#490=VECTOR('Line Direction',#489,1.) ;
#525=VECTOR('Line Direction',#524,1.) ;
#539=VECTOR('Line Direction',#538,1.) ;
#32=DIRECTION('Axis2P3D Direction',(1.,0.,0.)) ;
#33=DIRECTION('Axis2P3D XDirection',(0.,1.,0.)) ;
#37=DIRECTION('Axis2P3D Direction',(1.,0.,0.)) ;
#46=DIRECTION('Vector Direction',(0.,0.,-1.)) ;
#53=DIRECTION('Axis2P3D Direction',(1.,0.,0.)) ;
#60=DIRECTION('Axis2P3D Direction',(1.,0.,0.)) ;
#67=DIRECTION('Vector Direction',(0.,1.,0.)) ;
#74=DIRECTION('Axis2P3D Direction',(1.,0.,0.)) ;
#81=DIRECTION('Vector Direction',(0.,0.,1.)) ;
#88=DIRECTION('Axis2P3D Direction',(1.,0.,0.)) ;
#95=DIRECTION('Axis2P3D Direction',(1.,0.,0.)) ;
#102=DIRECTION('Vector Direction',(0.,-1.,0.)) ;
#119=DIRECTION('Axis2P3D Direction',(1.,0.,0.)) ;
#128=DIRECTION('Axis2P3D Direction',(1.,0.,0.)) ;
#138=DIRECTION('Axis2P3D Direction',(-0.,0.,1.)) ;
#139=DIRECTION('Axis2P3D XDirection',(0.,-1.,0.)) ;
#176=DIRECTION('Vector Direction',(0.,-1.,0.)) ;
#183=DIRECTION('Vector Direction',(1.,0.,0.)) ;
#190=DIRECTION('Vector Direction',(1.,0.,0.)) ;
#197=DIRECTION('Vector Direction',(0.,-1.,0.)) ;
#204=DIRECTION('Vector Direction',(1.,0.,0.)) ;
#211=DIRECTION('Vector Direction',(1.,0.,0.)) ;
#218=DIRECTION('Vector Direction',(0.,-1.,0.)) ;
#237=DIRECTION('Axis2P3D Direction',(1.,0.,0.)) ;
#238=DIRECTION('Axis2P3D XDirection',(0.,0.281539531143,0.959549629985)) ;
#242=DIRECTION('Vector Direction',(0.707106781187,-0.199078511643,-0.678504050247)) ;
#253=DIRECTION('Axis2P3D Direction',(1.,0.,0.)) ;
#275=DIRECTION('Axis2P3D Direction',(0.,1.,0.)) ;
#276=DIRECTION('Axis2P3D XDirection',(0.,0.,1.)) ;
#293=DIRECTION('Vector Direction',(0.,0.,1.)) ;
#300=DIRECTION('Vector Direction',(1.,0.,0.)) ;
#307=DIRECTION('Vector Direction',(1.,0.,0.)) ;
#314=DIRECTION('Vector Direction',(0.,0.,1.)) ;
#319=DIRECTION('Vector Direction',(0.,0.,1.)) ;
#346=DIRECTION('Axis2P3D Direction',(1.,0.,0.)) ;
#358=DIRECTION('Axis2P3D Direction',(0.,0.,-1.)) ;
#359=DIRECTION('Axis2P3D XDirection',(0.,1.,0.)) ;
#383=DIRECTION('Vector Direction',(0.,1.,0.)) ;
#390=DIRECTION('Vector Direction',(1.,0.,0.)) ;
#397=DIRECTION('Vector Direction',(1.,0.,0.)) ;
#404=DIRECTION('Vector Direction',(0.,1.,0.)) ;
#409=DIRECTION('Vector Direction',(0.,1.,0.)) ;
#428=DIRECTION('Vector Direction',(0.707106781187,0.199078511643,0.678504050247)) ;
#439=DIRECTION('Axis2P3D Direction',(1.,0.,0.)) ;
#461=DIRECTION('Axis2P3D Direction',(0.,-1.,0.)) ;
#462=DIRECTION('Axis2P3D XDirection',(0.,0.,-1.)) ;
#479=DIRECTION('Vector Direction',(0.,0.,-1.)) ;
#484=DIRECTION('Vector Direction',(0.,0.,-1.)) ;
#489=DIRECTION('Vector Direction',(0.,0.,-1.)) ;
#507=DIRECTION('Axis2P3D Direction',(1.,0.,0.)) ;
#519=DIRECTION('Axis2P3D Direction',(1.,0.,0.)) ;
#520=DIRECTION('Axis2P3D XDirection',(0.,1.,0.)) ;
#524=DIRECTION('Vector Direction',(1.,0.,0.)) ;
#531=DIRECTION('Axis2P3D Direction',(1.,0.,0.)) ;
#538=DIRECTION('Vector Direction',(1.,0.,0.)) ;
#550=DIRECTION('Axis2P3D Direction',(1.,0.,0.)) ;
#562=DIRECTION('Axis2P3D Direction',(1.,0.,0.)) ;
#563=DIRECTION('Axis2P3D XDirection',(0.,1.,0.)) ;
#573=DIRECTION('Axis2P3D Direction',(1.,0.,0.)) ;
#574=DIRECTION('Axis2P3D XDirection',(0.,1.,0.)) ;
#15=UNCERTAINTY_MEASURE_WITH_UNIT(LENGTH_MEASURE(0.005),#12,'distance_accuracy_value','CONFUSED CURVE UNCERTAINTY') ;
#18=AXIS2_PLACEMENT_3D(' ',#17,$,$) ;
#34=AXIS2_PLACEMENT_3D('Plane Axis2P3D',#31,#32,#33) ;
#38=AXIS2_PLACEMENT_3D('Circle Axis2P3D',#36,#37,$) ;
#54=AXIS2_PLACEMENT_3D('Circle Axis2P3D',#52,#53,$) ;
#61=AXIS2_PLACEMENT_3D('Circle Axis2P3D',#59,#60,$) ;
#75=AXIS2_PLACEMENT_3D('Circle Axis2P3D',#73,#74,$) ;
#89=AXIS2_PLACEMENT_3D('Circle Axis2P3D',#87,#88,$) ;
#96=AXIS2_PLACEMENT_3D('Circle Axis2P3D',#94,#95,$) ;
#120=AXIS2_PLACEMENT_3D('Circle Axis2P3D',#118,#119,$) ;
#129=AXIS2_PLACEMENT_3D('Circle Axis2P3D',#127,#128,$) ;
#140=AXIS2_PLACEMENT_3D('Plane Axis2P3D',#137,#138,#139) ;
#239=AXIS2_PLACEMENT_3D('Cone Axis2P3D',#236,#237,#238) ;
#254=AXIS2_PLACEMENT_3D('Circle Axis2P3D',#252,#253,$) ;
#277=AXIS2_PLACEMENT_3D('Plane Axis2P3D',#274,#275,#276) ;
#347=AXIS2_PLACEMENT_3D('Circle Axis2P3D',#345,#346,$) ;
#360=AXIS2_PLACEMENT_3D('Plane Axis2P3D',#357,#358,#359) ;
#440=AXIS2_PLACEMENT_3D('Circle Axis2P3D',#438,#439,$) ;
#463=AXIS2_PLACEMENT_3D('Plane Axis2P3D',#460,#461,#462) ;
#508=AXIS2_PLACEMENT_3D('Circle Axis2P3D',#506,#507,$) ;
#521=AXIS2_PLACEMENT_3D('Cylinder Axis2P3D',#518,#519,#520) ;
#532=AXIS2_PLACEMENT_3D('Circle Axis2P3D',#530,#531,$) ;
#551=AXIS2_PLACEMENT_3D('Circle Axis2P3D',#549,#550,$) ;
#564=AXIS2_PLACEMENT_3D('Plane Axis2P3D',#561,#562,#563) ;
#575=AXIS2_PLACEMENT_3D('Plane Axis2P3D',#572,#573,#574) ;
#48=LINE('Line',#45,#47) ;
#69=LINE('Line',#66,#68) ;
#83=LINE('Line',#80,#82) ;
#104=LINE('Line',#101,#103) ;
#178=LINE('Line',#175,#177) ;
#185=LINE('Line',#182,#184) ;
#192=LINE('Line',#189,#191) ;
#199=LINE('Line',#196,#198) ;
#206=LINE('Line',#203,#205) ;
#213=LINE('Line',#210,#212) ;
#220=LINE('Line',#217,#219) ;
#244=LINE('Line',#241,#243) ;
#295=LINE('Line',#292,#294) ;
#302=LINE('Line',#299,#301) ;
#309=LINE('Line',#306,#308) ;
#316=LINE('Line',#313,#315) ;
#321=LINE('Line',#318,#320) ;
#385=LINE('Line',#382,#384) ;
#392=LINE('Line',#389,#391) ;
#399=LINE('Line',#396,#398) ;
#406=LINE('Line',#403,#405) ;
#411=LINE('Line',#408,#410) ;
#430=LINE('Line',#427,#429) ;
#481=LINE('Line',#478,#480) ;
#486=LINE('Line',#483,#485) ;
#491=LINE('Line',#488,#490) ;
#526=LINE('Line',#523,#525) ;
#540=LINE('Line',#537,#539) ;
#39=CIRCLE('generated circle',#38,6.59238815543) ;
#55=CIRCLE('generated circle',#54,6.59238815543) ;
#62=CIRCLE('generated circle',#61,6.59238815543) ;
#76=CIRCLE('generated circle',#75,6.59238815543) ;
#90=CIRCLE('generated circle',#89,6.59238815543) ;
#97=CIRCLE('generated circle',#96,6.59238815543) ;
#121=CIRCLE('generated circle',#120,4.) ;
#130=CIRCLE('generated circle',#129,4.) ;
#255=CIRCLE('generated circle',#254,7.69238815543) ;
#348=CIRCLE('generated circle',#347,7.69238815543) ;
#441=CIRCLE('generated circle',#440,7.69238815543) ;
#509=CIRCLE('generated circle',#508,7.69238815543) ;
#533=CIRCLE('generated circle',#532,4.) ;
#552=CIRCLE('generated circle',#551,4.) ;
#35=PLANE('',#34) ;
#141=PLANE('',#140) ;
#278=PLANE('',#277) ;
#361=PLANE('',#360) ;
#464=PLANE('',#463) ;
#565=PLANE('',#564) ;
#576=PLANE('',#575) ;
#522=CYLINDRICAL_SURFACE('generated cylinder',#521,4.) ;
#240=CONICAL_SURFACE('Cone',#239,6.59238815543,0.785398163397) ;
#135=FACE_BOUND('',#132,.T.) ;
#586=FACE_BOUND('',#583,.T.) ;
#44=EDGE_CURVE('',#41,#43,#39,.T.) ;
#51=EDGE_CURVE('',#50,#43,#48,.T.) ;
#58=EDGE_CURVE('',#50,#57,#55,.T.) ;
#65=EDGE_CURVE('',#57,#64,#62,.T.) ;
#72=EDGE_CURVE('',#71,#64,#69,.T.) ;
#79=EDGE_CURVE('',#71,#78,#76,.T.) ;
#86=EDGE_CURVE('',#85,#78,#83,.T.) ;
#93=EDGE_CURVE('',#85,#92,#90,.T.) ;
#100=EDGE_CURVE('',#92,#99,#97,.T.) ;
#105=EDGE_CURVE('',#41,#99,#104,.T.) ;
#126=EDGE_CURVE('',#123,#125,#121,.T.) ;
#131=EDGE_CURVE('',#125,#123,#130,.T.) ;
#154=EDGE_CURVE('',#41,#153,#142,.T.) ;
#164=EDGE_CURVE('',#99,#163,#155,.T.) ;
#174=EDGE_CURVE('',#163,#173,#165,.T.) ;
#181=EDGE_CURVE('',#180,#173,#178,.F.) ;
#188=EDGE_CURVE('',#187,#180,#185,.T.) ;
#195=EDGE_CURVE('',#194,#187,#192,.T.) ;
#202=EDGE_CURVE('',#194,#201,#199,.F.) ;
#209=EDGE_CURVE('',#201,#208,#206,.T.) ;
#216=EDGE_CURVE('',#208,#215,#213,.T.) ;
#221=EDGE_CURVE('',#153,#215,#220,.F.) ;
#245=EDGE_CURVE('',#163,#92,#244,.F.) ;
#258=EDGE_CURVE('',#257,#173,#255,.T.) ;
#265=EDGE_CURVE('',#85,#257,#259,.T.) ;
#291=EDGE_CURVE('',#78,#290,#279,.T.) ;
#298=EDGE_CURVE('',#297,#290,#295,.F.) ;
#305=EDGE_CURVE('',#304,#297,#302,.T.) ;
#312=EDGE_CURVE('',#311,#304,#309,.T.) ;
#317=EDGE_CURVE('',#311,#194,#316,.F.) ;
#322=EDGE_CURVE('',#257,#180,#321,.F.) ;
#344=EDGE_CURVE('',#71,#343,#336,.T.) ;
#349=EDGE_CURVE('',#343,#290,#348,.T.) ;
#371=EDGE_CURVE('',#64,#370,#362,.T.) ;
#381=EDGE_CURVE('',#370,#380,#372,.T.) ;
#388=EDGE_CURVE('',#387,#380,#385,.F.) ;
#395=EDGE_CURVE('',#394,#387,#392,.T.) ;
#402=EDGE_CURVE('',#401,#394,#399,.T.) ;
#407=EDGE_CURVE('',#401,#311,#406,.F.) ;
#412=EDGE_CURVE('',#343,#297,#411,.F.) ;
#431=EDGE_CURVE('',#370,#57,#430,.F.) ;
#444=EDGE_CURVE('',#443,#380,#441,.T.) ;
#451=EDGE_CURVE('',#50,#443,#445,.T.) ;
#477=EDGE_CURVE('',#43,#476,#465,.T.) ;
#482=EDGE_CURVE('',#215,#476,#481,.F.) ;
#487=EDGE_CURVE('',#201,#401,#486,.F.) ;
#492=EDGE_CURVE('',#443,#387,#491,.F.) ;
#510=EDGE_CURVE('',#153,#476,#509,.T.) ;
#529=EDGE_CURVE('',#528,#123,#526,.T.) ;
#536=EDGE_CURVE('',#535,#528,#533,.T.) ;
#541=EDGE_CURVE('',#535,#125,#540,.T.) ;
#553=EDGE_CURVE('',#528,#535,#552,.T.) ;
#30=CLOSED_SHELL('Closed Shell',(#136,#235,#251,#273,#335,#356,#426,#437,#459,#505,#517,#548,#560,#571,#587,#593,#599,#605)) ;
#607=SHAPE_REPRESENTATION_RELATIONSHIP(' ',' ',#19,#606) ;
#106=EDGE_LOOP('',(#107,#108,#109,#110,#111,#112,#113,#114,#115,#116)) ;
#132=EDGE_LOOP('',(#133,#134)) ;
#222=EDGE_LOOP('',(#223,#224,#225,#226,#227,#228,#229,#230,#231,#232,#233)) ;
#246=EDGE_LOOP('',(#247,#248,#249)) ;
#266=EDGE_LOOP('',(#267,#268,#269,#270,#271)) ;
#323=EDGE_LOOP('',(#324,#325,#326,#327,#328,#329,#330,#331,#332,#333)) ;
#350=EDGE_LOOP('',(#351,#352,#353,#354)) ;
#413=EDGE_LOOP('',(#414,#415,#416,#417,#418,#419,#420,#421,#422,#423,#424)) ;
#432=EDGE_LOOP('',(#433,#434,#435)) ;
#452=EDGE_LOOP('',(#453,#454,#455,#456,#457)) ;
#493=EDGE_LOOP('',(#494,#495,#496,#497,#498,#499,#500,#501,#502,#503)) ;
#511=EDGE_LOOP('',(#512,#513,#514,#515)) ;
#542=EDGE_LOOP('',(#543,#544,#545,#546)) ;
#554=EDGE_LOOP('',(#555,#556,#557,#558)) ;
#566=EDGE_LOOP('',(#567,#568,#569)) ;
#577=EDGE_LOOP('',(#578,#579,#580,#581)) ;
#583=EDGE_LOOP('',(#584,#585)) ;
#588=EDGE_LOOP('',(#589,#590,#591)) ;
#594=EDGE_LOOP('',(#595,#596,#597)) ;
#600=EDGE_LOOP('',(#601,#602,#603)) ;
#107=ORIENTED_EDGE('',*,*,#44,.T.) ;
#108=ORIENTED_EDGE('',*,*,#51,.F.) ;
#109=ORIENTED_EDGE('',*,*,#58,.T.) ;
#110=ORIENTED_EDGE('',*,*,#65,.T.) ;
#111=ORIENTED_EDGE('',*,*,#72,.F.) ;
#112=ORIENTED_EDGE('',*,*,#79,.T.) ;
#113=ORIENTED_EDGE('',*,*,#86,.F.) ;
#114=ORIENTED_EDGE('',*,*,#93,.T.) ;
#115=ORIENTED_EDGE('',*,*,#100,.T.) ;
#116=ORIENTED_EDGE('',*,*,#105,.F.) ;
#133=ORIENTED_EDGE('',*,*,#126,.F.) ;
#134=ORIENTED_EDGE('',*,*,#131,.F.) ;
#223=ORIENTED_EDGE('',*,*,#154,.F.) ;
#224=ORIENTED_EDGE('',*,*,#105,.T.) ;
#225=ORIENTED_EDGE('',*,*,#164,.T.) ;
#226=ORIENTED_EDGE('',*,*,#174,.T.) ;
#227=ORIENTED_EDGE('',*,*,#181,.F.) ;
#228=ORIENTED_EDGE('',*,*,#188,.F.) ;
#229=ORIENTED_EDGE('',*,*,#195,.F.) ;
#230=ORIENTED_EDGE('',*,*,#202,.T.) ;
#231=ORIENTED_EDGE('',*,*,#209,.T.) ;
#232=ORIENTED_EDGE('',*,*,#216,.T.) ;
#233=ORIENTED_EDGE('',*,*,#221,.F.) ;
#247=ORIENTED_EDGE('',*,*,#164,.F.) ;
#248=ORIENTED_EDGE('',*,*,#100,.F.) ;
#249=ORIENTED_EDGE('',*,*,#245,.F.) ;
#267=ORIENTED_EDGE('',*,*,#258,.T.) ;
#268=ORIENTED_EDGE('',*,*,#174,.F.) ;
#269=ORIENTED_EDGE('',*,*,#245,.T.) ;
#270=ORIENTED_EDGE('',*,*,#93,.F.) ;
#271=ORIENTED_EDGE('',*,*,#265,.T.) ;
#324=ORIENTED_EDGE('',*,*,#265,.F.) ;
#325=ORIENTED_EDGE('',*,*,#86,.T.) ;
#326=ORIENTED_EDGE('',*,*,#291,.T.) ;
#327=ORIENTED_EDGE('',*,*,#298,.F.) ;
#328=ORIENTED_EDGE('',*,*,#305,.F.) ;
#329=ORIENTED_EDGE('',*,*,#312,.F.) ;
#330=ORIENTED_EDGE('',*,*,#317,.T.) ;
#331=ORIENTED_EDGE('',*,*,#195,.T.) ;
#332=ORIENTED_EDGE('',*,*,#188,.T.) ;
#333=ORIENTED_EDGE('',*,*,#322,.F.) ;
#351=ORIENTED_EDGE('',*,*,#79,.F.) ;
#352=ORIENTED_EDGE('',*,*,#344,.T.) ;
#353=ORIENTED_EDGE('',*,*,#349,.T.) ;
#354=ORIENTED_EDGE('',*,*,#291,.F.) ;
#414=ORIENTED_EDGE('',*,*,#344,.F.) ;
#415=ORIENTED_EDGE('',*,*,#72,.T.) ;
#416=ORIENTED_EDGE('',*,*,#371,.T.) ;
#417=ORIENTED_EDGE('',*,*,#381,.T.) ;
#418=ORIENTED_EDGE('',*,*,#388,.F.) ;
#419=ORIENTED_EDGE('',*,*,#395,.F.) ;
#420=ORIENTED_EDGE('',*,*,#402,.F.) ;
#421=ORIENTED_EDGE('',*,*,#407,.T.) ;
#422=ORIENTED_EDGE('',*,*,#312,.T.) ;
#423=ORIENTED_EDGE('',*,*,#305,.T.) ;
#424=ORIENTED_EDGE('',*,*,#412,.F.) ;
#433=ORIENTED_EDGE('',*,*,#371,.F.) ;
#434=ORIENTED_EDGE('',*,*,#65,.F.) ;
#435=ORIENTED_EDGE('',*,*,#431,.F.) ;
#453=ORIENTED_EDGE('',*,*,#444,.T.) ;
#454=ORIENTED_EDGE('',*,*,#381,.F.) ;
#455=ORIENTED_EDGE('',*,*,#431,.T.) ;
#456=ORIENTED_EDGE('',*,*,#58,.F.) ;
#457=ORIENTED_EDGE('',*,*,#451,.T.) ;
#494=ORIENTED_EDGE('',*,*,#451,.F.) ;
#495=ORIENTED_EDGE('',*,*,#51,.T.) ;
#496=ORIENTED_EDGE('',*,*,#477,.T.) ;
#497=ORIENTED_EDGE('',*,*,#482,.F.) ;
#498=ORIENTED_EDGE('',*,*,#216,.F.) ;
#499=ORIENTED_EDGE('',*,*,#209,.F.) ;
#500=ORIENTED_EDGE('',*,*,#487,.T.) ;
#501=ORIENTED_EDGE('',*,*,#402,.T.) ;
#502=ORIENTED_EDGE('',*,*,#395,.T.) ;
#503=ORIENTED_EDGE('',*,*,#492,.F.) ;
#512=ORIENTED_EDGE('',*,*,#44,.F.) ;
#513=ORIENTED_EDGE('',*,*,#154,.T.) ;
#514=ORIENTED_EDGE('',*,*,#510,.T.) ;
#515=ORIENTED_EDGE('',*,*,#477,.F.) ;
#543=ORIENTED_EDGE('',*,*,#131,.T.) ;
#544=ORIENTED_EDGE('',*,*,#529,.F.) ;
#545=ORIENTED_EDGE('',*,*,#536,.F.) ;
#546=ORIENTED_EDGE('',*,*,#541,.T.) ;
#555=ORIENTED_EDGE('',*,*,#126,.T.) ;
#556=ORIENTED_EDGE('',*,*,#541,.F.) ;
#557=ORIENTED_EDGE('',*,*,#553,.F.) ;
#558=ORIENTED_EDGE('',*,*,#529,.T.) ;
#567=ORIENTED_EDGE('',*,*,#181,.T.) ;
#568=ORIENTED_EDGE('',*,*,#258,.F.) ;
#569=ORIENTED_EDGE('',*,*,#322,.T.) ;
#578=ORIENTED_EDGE('',*,*,#487,.F.) ;
#579=ORIENTED_EDGE('',*,*,#202,.F.) ;
#580=ORIENTED_EDGE('',*,*,#317,.F.) ;
#581=ORIENTED_EDGE('',*,*,#407,.F.) ;
#584=ORIENTED_EDGE('',*,*,#536,.T.) ;
#585=ORIENTED_EDGE('',*,*,#553,.T.) ;
#589=ORIENTED_EDGE('',*,*,#482,.T.) ;
#590=ORIENTED_EDGE('',*,*,#510,.F.) ;
#591=ORIENTED_EDGE('',*,*,#221,.T.) ;
#595=ORIENTED_EDGE('',*,*,#349,.F.) ;
#596=ORIENTED_EDGE('',*,*,#412,.T.) ;
#597=ORIENTED_EDGE('',*,*,#298,.T.) ;
#601=ORIENTED_EDGE('',*,*,#388,.T.) ;
#602=ORIENTED_EDGE('',*,*,#444,.F.) ;
#603=ORIENTED_EDGE('',*,*,#492,.T.) ;
#21=MANIFOLD_SOLID_BREP('\X2\51E04F554F53\X0\.2',#30) ;
#41=VERTEX_POINT('',#40) ;
#43=VERTEX_POINT('',#42) ;
#50=VERTEX_POINT('',#49) ;
#57=VERTEX_POINT('',#56) ;
#64=VERTEX_POINT('',#63) ;
#71=VERTEX_POINT('',#70) ;
#78=VERTEX_POINT('',#77) ;
#85=VERTEX_POINT('',#84) ;
#92=VERTEX_POINT('',#91) ;
#99=VERTEX_POINT('',#98) ;
#123=VERTEX_POINT('',#122) ;
#125=VERTEX_POINT('',#124) ;
#153=VERTEX_POINT('',#152) ;
#163=VERTEX_POINT('',#162) ;
#173=VERTEX_POINT('',#172) ;
#180=VERTEX_POINT('',#179) ;
#187=VERTEX_POINT('',#186) ;
#194=VERTEX_POINT('',#193) ;
#201=VERTEX_POINT('',#200) ;
#208=VERTEX_POINT('',#207) ;
#215=VERTEX_POINT('',#214) ;
#257=VERTEX_POINT('',#256) ;
#290=VERTEX_POINT('',#289) ;
#297=VERTEX_POINT('',#296) ;
#304=VERTEX_POINT('',#303) ;
#311=VERTEX_POINT('',#310) ;
#343=VERTEX_POINT('',#342) ;
#370=VERTEX_POINT('',#369) ;
#380=VERTEX_POINT('',#379) ;
#387=VERTEX_POINT('',#386) ;
#394=VERTEX_POINT('',#393) ;
#401=VERTEX_POINT('',#400) ;
#443=VERTEX_POINT('',#442) ;
#476=VERTEX_POINT('',#475) ;
#528=VERTEX_POINT('',#527) ;
#535=VERTEX_POINT('',#534) ;
#606=ADVANCED_BREP_SHAPE_REPRESENTATION('NONE',(#21),#16) ;
#136=ADVANCED_FACE('\X2\51E04F554F53\X0\.2',(#117,#135),#35,.T.) ;
#235=ADVANCED_FACE('\X2\51E04F554F53\X0\.2',(#234),#141,.F.) ;
#251=ADVANCED_FACE('\X2\51E04F554F53\X0\.2',(#250),#240,.F.) ;
#273=ADVANCED_FACE('\X2\51E04F554F53\X0\.2',(#272),#240,.F.) ;
#335=ADVANCED_FACE('\X2\51E04F554F53\X0\.2',(#334),#278,.F.) ;
#356=ADVANCED_FACE('\X2\51E04F554F53\X0\.2',(#355),#240,.F.) ;
#426=ADVANCED_FACE('\X2\51E04F554F53\X0\.2',(#425),#361,.F.) ;
#437=ADVANCED_FACE('\X2\51E04F554F53\X0\.2',(#436),#240,.F.) ;
#459=ADVANCED_FACE('\X2\51E04F554F53\X0\.2',(#458),#240,.F.) ;
#505=ADVANCED_FACE('\X2\51E04F554F53\X0\.2',(#504),#464,.F.) ;
#517=ADVANCED_FACE('\X2\51E04F554F53\X0\.2',(#516),#240,.F.) ;
#548=ADVANCED_FACE('\X2\51E04F554F53\X0\.2',(#547),#522,.F.) ;
#560=ADVANCED_FACE('\X2\51E04F554F53\X0\.2',(#559),#522,.F.) ;
#571=ADVANCED_FACE('\X2\51E04F554F53\X0\.2',(#570),#565,.T.) ;
#587=ADVANCED_FACE('\X2\51E04F554F53\X0\.2',(#582,#586),#576,.F.) ;
#593=ADVANCED_FACE('\X2\51E04F554F53\X0\.2',(#592),#565,.T.) ;
#599=ADVANCED_FACE('\X2\51E04F554F53\X0\.2',(#598),#565,.T.) ;
#605=ADVANCED_FACE('\X2\51E04F554F53\X0\.2',(#604),#565,.T.) ;
#4=APPLICATION_PROTOCOL_DEFINITION('international standard','ap242_managed_model_based_3d_engineering',2014,#1) ;
#142=B_SPLINE_CURVE_WITH_KNOTS('',5,(#143,#144,#145,#146,#147,#148,#149,#150,#151),.UNSPECIFIED.,.F.,.U.,(6,3,6),(0.,31.4196823067,39.8390770438),.UNSPECIFIED.) ;
#155=B_SPLINE_CURVE_WITH_KNOTS('',5,(#156,#157,#158,#159,#160,#161),.UNSPECIFIED.,.F.,.U.,(6,6),(0.,11.810244534),.UNSPECIFIED.) ;
#165=B_SPLINE_CURVE_WITH_KNOTS('',5,(#166,#167,#168,#169,#170,#171),.UNSPECIFIED.,.F.,.U.,(6,6),(0.,28.0267354521),.UNSPECIFIED.) ;
#259=B_SPLINE_CURVE_WITH_KNOTS('',4,(#260,#261,#262,#263,#264),.UNSPECIFIED.,.F.,.U.,(5,5),(0.,39.8390770446),.UNSPECIFIED.) ;
#279=B_SPLINE_CURVE_WITH_KNOTS('',5,(#280,#281,#282,#283,#284,#285,#286,#287,#288),.UNSPECIFIED.,.F.,.U.,(6,3,6),(0.,31.419682307,39.839077044),.UNSPECIFIED.) ;
#336=B_SPLINE_CURVE_WITH_KNOTS('',4,(#337,#338,#339,#340,#341),.UNSPECIFIED.,.F.,.U.,(5,5),(0.,39.8390770403),.UNSPECIFIED.) ;
#362=B_SPLINE_CURVE_WITH_KNOTS('',5,(#363,#364,#365,#366,#367,#368),.UNSPECIFIED.,.F.,.U.,(6,6),(0.,11.810244534),.UNSPECIFIED.) ;
#372=B_SPLINE_CURVE_WITH_KNOTS('',5,(#373,#374,#375,#376,#377,#378),.UNSPECIFIED.,.F.,.U.,(6,6),(0.,28.0267354541),.UNSPECIFIED.) ;
#445=B_SPLINE_CURVE_WITH_KNOTS('',4,(#446,#447,#448,#449,#450),.UNSPECIFIED.,.F.,.U.,(5,5),(0.,39.8390770393),.UNSPECIFIED.) ;
#465=B_SPLINE_CURVE_WITH_KNOTS('',5,(#466,#467,#468,#469,#470,#471,#472,#473,#474),.UNSPECIFIED.,.F.,.U.,(6,3,6),(0.,31.4196823081,39.8390770452),.UNSPECIFIED.) ;
#22=COLOUR_RGB('Colour',0.823529411765,0.823529411765,1.) ;
#117=FACE_OUTER_BOUND('',#106,.T.) ;
#234=FACE_OUTER_BOUND('',#222,.T.) ;
#250=FACE_OUTER_BOUND('',#246,.T.) ;
#272=FACE_OUTER_BOUND('',#266,.T.) ;
#334=FACE_OUTER_BOUND('',#323,.T.) ;
#355=FACE_OUTER_BOUND('',#350,.T.) ;
#425=FACE_OUTER_BOUND('',#413,.T.) ;
#436=FACE_OUTER_BOUND('',#432,.T.) ;
#458=FACE_OUTER_BOUND('',#452,.T.) ;
#504=FACE_OUTER_BOUND('',#493,.T.) ;
#516=FACE_OUTER_BOUND('',#511,.T.) ;
#547=FACE_OUTER_BOUND('',#542,.T.) ;
#559=FACE_OUTER_BOUND('',#554,.T.) ;
#570=FACE_OUTER_BOUND('',#566,.T.) ;
#582=FACE_OUTER_BOUND('',#577,.T.) ;
#592=FACE_OUTER_BOUND('',#588,.T.) ;
#598=FACE_OUTER_BOUND('',#594,.T.) ;
#604=FACE_OUTER_BOUND('',#600,.T.) ;
#9=PRODUCT_CATEGORY_RELATIONSHIP(' ',' ',#7,#8) ;
#6=PRODUCT_DEFINITION_FORMATION_WITH_SPECIFIED_SOURCE('',' ',#5,.NOT_KNOWN.) ;
#20=SHAPE_DEFINITION_REPRESENTATION(#11,#19) ;
#12=(LENGTH_UNIT()NAMED_UNIT(*)SI_UNIT(.MILLI.,.METRE.)) ;
#13=(NAMED_UNIT(*)PLANE_ANGLE_UNIT()SI_UNIT($,.RADIAN.)) ;
#14=(NAMED_UNIT(*)SI_UNIT($,.STERADIAN.)SOLID_ANGLE_UNIT()) ;
#16=(GEOMETRIC_REPRESENTATION_CONTEXT(3)GLOBAL_UNCERTAINTY_ASSIGNED_CONTEXT((#15))GLOBAL_UNIT_ASSIGNED_CONTEXT((#12,#13,#14))REPRESENTATION_CONTEXT(' ',' ')) ;
ENDSEC;
END-ISO-10303-21;
