ISO-10303-21;
HEADER;
FILE_DESCRIPTION(('CATIA V5 STEP Exchange','CAx-IF Rec.Pracs.--- Model Styling and Organization---1.4--- 2014-01-23','CAx-IF Rec.Pracs.---3D Tessellated Data Validation Properties---0.5---2014-09-14'),'2;1');

FILE_NAME('E:\\shenshujun\\\X2\667A80FD88C5914D\X0\\\\X2\4E2D592E901A905352A05F3A677F\X0\\\Q37106.stp','2026-09-08T09:13:29+00:00',('none'),('none'),'CATIA Version 5-6 Release 2018','CATIA V5 STEP AP242','none');

FILE_SCHEMA(('AP242_MANAGED_MODEL_BASED_3D_ENGINEERING_MIM_LF  {1 0 10303 442 1 1 4}'));

ENDSEC;
DATA;
#5=PRODUCT('Q37106.2','','',(#2)) ;
#2=PRODUCT_CONTEXT(' ',#1,'mechanical') ;
#1=APPLICATION_CONTEXT('managed model based 3d engineering') ;
#10=PRODUCT_DEFINITION('',' ',#6,#3) ;
#3=PRODUCT_DEFINITION_CONTEXT('part definition',#1,' ') ;
#11=PRODUCT_DEFINITION_SHAPE(' ',' ',#10) ;
#488=MECHANICAL_DESIGN_GEOMETRIC_PRESENTATION_REPRESENTATION(' ',(#29),#16) ;
#19=SHAPE_REPRESENTATION(' ',(#18),#16) ;
#7=PRODUCT_CATEGORY('part','specification') ;
#17=CARTESIAN_POINT(' ',(0.,0.,0.)) ;
#31=CARTESIAN_POINT('Axis2P3D Location',(5.,3.51507575951,3.51507575951)) ;
#36=CARTESIAN_POINT('Axis2P3D Location',(5.,0.,0.)) ;
#40=CARTESIAN_POINT('Vertex',(5.,-1.39955210103,-4.7699862795)) ;
#42=CARTESIAN_POINT('Vertex',(5.,1.39955210103,4.7699862795)) ;
#45=CARTESIAN_POINT('Axis2P3D Location',(5.,0.,0.)) ;
#54=CARTESIAN_POINT('Axis2P3D Location',(5.,4.4408920985E-016,0.)) ;
#58=CARTESIAN_POINT('Vertex',(5.,-3.,3.67394039744E-016)) ;
#60=CARTESIAN_POINT('Vertex',(5.,3.,0.)) ;
#63=CARTESIAN_POINT('Axis2P3D Location',(5.,-8.881784197E-016,-8.881784197E-016)) ;
#73=CARTESIAN_POINT('Axis2P3D Location',(5.,0.,0.)) ;
#78=CARTESIAN_POINT('Axis2P3D Location',(5.9,0.,0.)) ;
#82=CARTESIAN_POINT('Vertex',(5.9,-5.,-3.07724507499)) ;
#84=CARTESIAN_POINT('Vertex',(5.9,-3.07724507499,-5.)) ;
#88=CARTESIAN_POINT('Control Point',(5.23971008201,-1.46703996513,-5.)) ;
#89=CARTESIAN_POINT('Control Point',(5.34161744213,-1.82900462319,-5.)) ;
#90=CARTESIAN_POINT('Control Point',(5.47981776449,-2.20976766442,-4.99999826583)) ;
#91=CARTESIAN_POINT('Control Point',(5.65975354661,-2.61887949635,-5.)) ;
#92=CARTESIAN_POINT('Control Point',(5.9,-3.07724507499,-5.)) ;
#93=CARTESIAN_POINT('Vertex',(5.23971008201,-1.46703996513,-5.)) ;
#96=CARTESIAN_POINT('Line Origine',(5.45,-1.52624489005,-5.201783613)) ;
#101=CARTESIAN_POINT('Line Origine',(5.45,1.52624489005,5.201783613)) ;
#105=CARTESIAN_POINT('Vertex',(5.23971008201,1.46703996513,5.)) ;
#109=CARTESIAN_POINT('Control Point',(5.23971008201,1.46703996513,5.)) ;
#110=CARTESIAN_POINT('Control Point',(4.98364375971,0.557518232039,5.)) ;
#111=CARTESIAN_POINT('Control Point',(4.93756310094,-0.238218615083,5.00000066313)) ;
#112=CARTESIAN_POINT('Control Point',(5.04523401679,-1.06286005701,4.99999727275)) ;
#113=CARTESIAN_POINT('Control Point',(5.29632401731,-1.92549325009,5.)) ;
#114=CARTESIAN_POINT('Control Point',(5.9,-3.07724507499,5.)) ;
#115=CARTESIAN_POINT('Vertex',(5.9,-3.07724507499,5.)) ;
#118=CARTESIAN_POINT('Axis2P3D Location',(5.9,0.,0.)) ;
#122=CARTESIAN_POINT('Vertex',(5.9,-5.,3.07724507499)) ;
#126=CARTESIAN_POINT('Control Point',(5.9,-5.,-3.07724507499)) ;
#127=CARTESIAN_POINT('Control Point',(5.69776740245,-5.,-2.69140603226)) ;
#128=CARTESIAN_POINT('Control Point',(5.53569941034,-4.9999999675,-2.3383372444)) ;
#129=CARTESIAN_POINT('Control Point',(5.40473441831,-4.99999998831,-2.00812659356)) ;
#130=CARTESIAN_POINT('Control Point',(5.11745102939,-5.00000002041,-1.14597581465)) ;
#131=CARTESIAN_POINT('Control Point',(5.00782989458,-4.99999996436,-0.372137823144)) ;
#132=CARTESIAN_POINT('Control Point',(4.99529091073,-5.0000000276,0.107617731108)) ;
#133=CARTESIAN_POINT('Control Point',(5.06883830041,-4.99999998117,0.925497455594)) ;
#134=CARTESIAN_POINT('Control Point',(5.33319592619,-5.00000001285,1.82172354369)) ;
#135=CARTESIAN_POINT('Control Point',(5.47529152285,-4.99999995391,2.20474321046)) ;
#136=CARTESIAN_POINT('Control Point',(5.65916510328,-5.,2.61775680687)) ;
#137=CARTESIAN_POINT('Control Point',(5.9,-5.,3.07724507499)) ;
#150=CARTESIAN_POINT('Axis2P3D Location',(5.9,0.,0.)) ;
#154=CARTESIAN_POINT('Vertex',(5.9,5.,3.07724507499)) ;
#156=CARTESIAN_POINT('Vertex',(5.9,3.07724507499,5.)) ;
#160=CARTESIAN_POINT('Control Point',(5.23971008201,1.46703996513,5.)) ;
#161=CARTESIAN_POINT('Control Point',(5.34161744213,1.8290046232,5.)) ;
#162=CARTESIAN_POINT('Control Point',(5.47981776449,2.20976766442,4.99999826583)) ;
#163=CARTESIAN_POINT('Control Point',(5.65975354661,2.61887949634,5.)) ;
#164=CARTESIAN_POINT('Control Point',(5.9,3.07724507499,5.)) ;
#167=CARTESIAN_POINT('Control Point',(5.23971008201,-1.46703996513,-5.)) ;
#168=CARTESIAN_POINT('Control Point',(4.98364375967,-0.55751823189,-5.)) ;
#169=CARTESIAN_POINT('Control Point',(4.937563101,0.238218614866,-5.00000066314)) ;
#170=CARTESIAN_POINT('Control Point',(5.04523401682,1.06286005717,-4.99999727275)) ;
#171=CARTESIAN_POINT('Control Point',(5.29632401721,1.9254932499,-5.)) ;
#172=CARTESIAN_POINT('Control Point',(5.9,3.07724507499,-5.)) ;
#173=CARTESIAN_POINT('Vertex',(5.9,3.07724507499,-5.)) ;
#176=CARTESIAN_POINT('Axis2P3D Location',(5.9,0.,0.)) ;
#180=CARTESIAN_POINT('Vertex',(5.9,5.,-3.07724507499)) ;
#184=CARTESIAN_POINT('Control Point',(5.9,5.,-3.07724507499)) ;
#185=CARTESIAN_POINT('Control Point',(5.69776740243,5.,-2.69140603221)) ;
#186=CARTESIAN_POINT('Control Point',(5.53569941032,4.99999996752,-2.33833724432)) ;
#187=CARTESIAN_POINT('Control Point',(5.40473441835,4.99999998831,-2.00812659364)) ;
#188=CARTESIAN_POINT('Control Point',(5.11745102935,5.0000000204,-1.14597581458)) ;
#189=CARTESIAN_POINT('Control Point',(5.00782989458,4.99999996439,-0.372137822992)) ;
#190=CARTESIAN_POINT('Control Point',(4.99529091075,5.00000002763,0.107617730951)) ;
#191=CARTESIAN_POINT('Control Point',(5.06883830036,4.99999998115,0.925497455482)) ;
#192=CARTESIAN_POINT('Control Point',(5.33319592619,5.00000001286,1.82172354366)) ;
#193=CARTESIAN_POINT('Control Point',(5.47529152285,4.99999995389,2.2047432105)) ;
#194=CARTESIAN_POINT('Control Point',(5.6591651033,5.,2.61775680689)) ;
#195=CARTESIAN_POINT('Control Point',(5.9,5.,3.07724507499)) ;
#208=CARTESIAN_POINT('Axis2P3D Location',(2.95,0.,0.)) ;
#213=CARTESIAN_POINT('Line Origine',(2.95,-3.,3.67394039744E-016)) ;
#217=CARTESIAN_POINT('Vertex',(0.,-3.,3.67394039744E-016)) ;
#220=CARTESIAN_POINT('Axis2P3D Location',(0.,0.,0.)) ;
#224=CARTESIAN_POINT('Vertex',(0.,3.,0.)) ;
#227=CARTESIAN_POINT('Line Origine',(2.95,3.,0.)) ;
#239=CARTESIAN_POINT('Axis2P3D Location',(0.,0.,0.)) ;
#251=CARTESIAN_POINT('Axis2P3D Location',(0.,-5.,-5.)) ;
#256=CARTESIAN_POINT('Line Origine',(5.9,-5.,4.03862253749)) ;
#260=CARTESIAN_POINT('Vertex',(5.9,-5.,5.)) ;
#263=CARTESIAN_POINT('Line Origine',(5.45,-5.,5.)) ;
#267=CARTESIAN_POINT('Vertex',(5.,-5.,5.)) ;
#270=CARTESIAN_POINT('Line Origine',(2.5,-5.,5.)) ;
#274=CARTESIAN_POINT('Vertex',(0.,-5.,5.)) ;
#277=CARTESIAN_POINT('Line Origine',(0.,-5.,0.)) ;
#281=CARTESIAN_POINT('Vertex',(0.,-5.,-5.)) ;
#284=CARTESIAN_POINT('Line Origine',(2.5,-5.,-5.)) ;
#288=CARTESIAN_POINT('Vertex',(5.,-5.,-5.)) ;
#291=CARTESIAN_POINT('Line Origine',(5.45,-5.,-5.)) ;
#295=CARTESIAN_POINT('Vertex',(5.9,-5.,-5.)) ;
#298=CARTESIAN_POINT('Line Origine',(5.9,-5.,-4.03862253749)) ;
#314=CARTESIAN_POINT('Axis2P3D Location',(5.9,5.,5.)) ;
#319=CARTESIAN_POINT('Line Origine',(5.9,-4.03862253749,5.)) ;
#330=CARTESIAN_POINT('Axis2P3D Location',(0.,-5.,5.)) ;
#335=CARTESIAN_POINT('Line Origine',(5.9,4.03862253749,5.)) ;
#339=CARTESIAN_POINT('Vertex',(5.9,5.,5.)) ;
#342=CARTESIAN_POINT('Line Origine',(5.45,5.,5.)) ;
#346=CARTESIAN_POINT('Vertex',(5.,5.,5.)) ;
#349=CARTESIAN_POINT('Line Origine',(2.5,5.,5.)) ;
#353=CARTESIAN_POINT('Vertex',(0.,5.,5.)) ;
#356=CARTESIAN_POINT('Line Origine',(0.,0.,5.)) ;
#373=CARTESIAN_POINT('Axis2P3D Location',(0.,5.,-5.)) ;
#378=CARTESIAN_POINT('Line Origine',(5.9,-4.03862253749,-5.)) ;
#383=CARTESIAN_POINT('Line Origine',(0.,-1.42108547152E-014,-5.)) ;
#387=CARTESIAN_POINT('Vertex',(0.,5.,-5.)) ;
#390=CARTESIAN_POINT('Line Origine',(2.5,5.,-5.)) ;
#394=CARTESIAN_POINT('Vertex',(5.,5.,-5.)) ;
#397=CARTESIAN_POINT('Line Origine',(5.45,5.,-5.)) ;
#401=CARTESIAN_POINT('Vertex',(5.9,5.,-5.)) ;
#404=CARTESIAN_POINT('Line Origine',(5.9,4.03862253749,-5.)) ;
#427=CARTESIAN_POINT('Axis2P3D Location',(0.,5.,5.)) ;
#432=CARTESIAN_POINT('Line Origine',(5.9,5.,-4.03862253749)) ;
#437=CARTESIAN_POINT('Line Origine',(0.,5.,0.)) ;
#442=CARTESIAN_POINT('Line Origine',(5.9,5.,4.03862253749)) ;
#470=CARTESIAN_POINT('Axis2P3D Location',(0.,0.,0.)) ;
#8=PRODUCT_RELATED_PRODUCT_CATEGORY('part',$,(#5)) ;
#29=STYLED_ITEM(' ',(#28),#21) ;
#28=PRESENTATION_STYLE_ASSIGNMENT((#27)) ;
#27=SURFACE_STYLE_USAGE(.BOTH.,#26) ;
#26=SURFACE_SIDE_STYLE(' ',(#25)) ;
#25=SURFACE_STYLE_FILL_AREA(#24) ;
#24=FILL_AREA_STYLE(' ',(#23)) ;
#23=FILL_AREA_STYLE_COLOUR(' ',#22) ;
#98=VECTOR('Line Direction',#97,1.) ;
#103=VECTOR('Line Direction',#102,1.) ;
#215=VECTOR('Line Direction',#214,1.) ;
#229=VECTOR('Line Direction',#228,1.) ;
#258=VECTOR('Line Direction',#257,1.) ;
#265=VECTOR('Line Direction',#264,1.) ;
#272=VECTOR('Line Direction',#271,1.) ;
#279=VECTOR('Line Direction',#278,1.) ;
#286=VECTOR('Line Direction',#285,1.) ;
#293=VECTOR('Line Direction',#292,1.) ;
#300=VECTOR('Line Direction',#299,1.) ;
#321=VECTOR('Line Direction',#320,1.) ;
#337=VECTOR('Line Direction',#336,1.) ;
#344=VECTOR('Line Direction',#343,1.) ;
#351=VECTOR('Line Direction',#350,1.) ;
#358=VECTOR('Line Direction',#357,1.) ;
#380=VECTOR('Line Direction',#379,1.) ;
#385=VECTOR('Line Direction',#384,1.) ;
#392=VECTOR('Line Direction',#391,1.) ;
#399=VECTOR('Line Direction',#398,1.) ;
#406=VECTOR('Line Direction',#405,1.) ;
#434=VECTOR('Line Direction',#433,1.) ;
#439=VECTOR('Line Direction',#438,1.) ;
#444=VECTOR('Line Direction',#443,1.) ;
#32=DIRECTION('Axis2P3D Direction',(1.,0.,0.)) ;
#33=DIRECTION('Axis2P3D XDirection',(0.,1.,0.)) ;
#37=DIRECTION('Axis2P3D Direction',(1.,0.,0.)) ;
#46=DIRECTION('Axis2P3D Direction',(1.,0.,0.)) ;
#55=DIRECTION('Axis2P3D Direction',(1.,0.,0.)) ;
#64=DIRECTION('Axis2P3D Direction',(1.,0.,0.)) ;
#74=DIRECTION('Axis2P3D Direction',(1.,0.,0.)) ;
#75=DIRECTION('Axis2P3D XDirection',(0.,0.281539531143,0.959549629985)) ;
#79=DIRECTION('Axis2P3D Direction',(1.,0.,0.)) ;
#97=DIRECTION('Vector Direction',(0.707106781187,-0.199078511643,-0.678504050247)) ;
#102=DIRECTION('Vector Direction',(0.707106781187,0.199078511643,0.678504050247)) ;
#119=DIRECTION('Axis2P3D Direction',(1.,0.,0.)) ;
#151=DIRECTION('Axis2P3D Direction',(1.,0.,0.)) ;
#177=DIRECTION('Axis2P3D Direction',(1.,0.,0.)) ;
#209=DIRECTION('Axis2P3D Direction',(1.,0.,0.)) ;
#210=DIRECTION('Axis2P3D XDirection',(0.,1.,0.)) ;
#214=DIRECTION('Vector Direction',(1.,0.,0.)) ;
#221=DIRECTION('Axis2P3D Direction',(1.,0.,0.)) ;
#228=DIRECTION('Vector Direction',(1.,0.,0.)) ;
#240=DIRECTION('Axis2P3D Direction',(1.,0.,0.)) ;
#252=DIRECTION('Axis2P3D Direction',(0.,1.,0.)) ;
#253=DIRECTION('Axis2P3D XDirection',(0.,0.,1.)) ;
#257=DIRECTION('Vector Direction',(0.,0.,1.)) ;
#264=DIRECTION('Vector Direction',(1.,0.,0.)) ;
#271=DIRECTION('Vector Direction',(1.,0.,0.)) ;
#278=DIRECTION('Vector Direction',(0.,0.,1.)) ;
#285=DIRECTION('Vector Direction',(1.,0.,0.)) ;
#292=DIRECTION('Vector Direction',(1.,0.,0.)) ;
#299=DIRECTION('Vector Direction',(0.,0.,1.)) ;
#315=DIRECTION('Axis2P3D Direction',(1.,0.,0.)) ;
#316=DIRECTION('Axis2P3D XDirection',(0.,1.,0.)) ;
#320=DIRECTION('Vector Direction',(0.,1.,0.)) ;
#331=DIRECTION('Axis2P3D Direction',(0.,0.,-1.)) ;
#332=DIRECTION('Axis2P3D XDirection',(0.,1.,0.)) ;
#336=DIRECTION('Vector Direction',(0.,1.,0.)) ;
#343=DIRECTION('Vector Direction',(1.,0.,0.)) ;
#350=DIRECTION('Vector Direction',(1.,0.,0.)) ;
#357=DIRECTION('Vector Direction',(0.,1.,0.)) ;
#374=DIRECTION('Axis2P3D Direction',(-0.,0.,1.)) ;
#375=DIRECTION('Axis2P3D XDirection',(0.,-1.,0.)) ;
#379=DIRECTION('Vector Direction',(0.,-1.,0.)) ;
#384=DIRECTION('Vector Direction',(0.,-1.,0.)) ;
#391=DIRECTION('Vector Direction',(1.,0.,0.)) ;
#398=DIRECTION('Vector Direction',(1.,0.,0.)) ;
#405=DIRECTION('Vector Direction',(0.,-1.,0.)) ;
#428=DIRECTION('Axis2P3D Direction',(0.,-1.,0.)) ;
#429=DIRECTION('Axis2P3D XDirection',(0.,0.,-1.)) ;
#433=DIRECTION('Vector Direction',(0.,0.,-1.)) ;
#438=DIRECTION('Vector Direction',(0.,0.,-1.)) ;
#443=DIRECTION('Vector Direction',(0.,0.,-1.)) ;
#471=DIRECTION('Axis2P3D Direction',(1.,0.,0.)) ;
#472=DIRECTION('Axis2P3D XDirection',(0.,1.,0.)) ;
#15=UNCERTAINTY_MEASURE_WITH_UNIT(LENGTH_MEASURE(0.005),#12,'distance_accuracy_value','CONFUSED CURVE UNCERTAINTY') ;
#18=AXIS2_PLACEMENT_3D(' ',#17,$,$) ;
#34=AXIS2_PLACEMENT_3D('Plane Axis2P3D',#31,#32,#33) ;
#38=AXIS2_PLACEMENT_3D('Circle Axis2P3D',#36,#37,$) ;
#47=AXIS2_PLACEMENT_3D('Circle Axis2P3D',#45,#46,$) ;
#56=AXIS2_PLACEMENT_3D('Circle Axis2P3D',#54,#55,$) ;
#65=AXIS2_PLACEMENT_3D('Circle Axis2P3D',#63,#64,$) ;
#76=AXIS2_PLACEMENT_3D('Cone Axis2P3D',#73,#74,#75) ;
#80=AXIS2_PLACEMENT_3D('Circle Axis2P3D',#78,#79,$) ;
#120=AXIS2_PLACEMENT_3D('Circle Axis2P3D',#118,#119,$) ;
#152=AXIS2_PLACEMENT_3D('Circle Axis2P3D',#150,#151,$) ;
#178=AXIS2_PLACEMENT_3D('Circle Axis2P3D',#176,#177,$) ;
#211=AXIS2_PLACEMENT_3D('Cylinder Axis2P3D',#208,#209,#210) ;
#222=AXIS2_PLACEMENT_3D('Circle Axis2P3D',#220,#221,$) ;
#241=AXIS2_PLACEMENT_3D('Circle Axis2P3D',#239,#240,$) ;
#254=AXIS2_PLACEMENT_3D('Plane Axis2P3D',#251,#252,#253) ;
#317=AXIS2_PLACEMENT_3D('Plane Axis2P3D',#314,#315,#316) ;
#333=AXIS2_PLACEMENT_3D('Plane Axis2P3D',#330,#331,#332) ;
#376=AXIS2_PLACEMENT_3D('Plane Axis2P3D',#373,#374,#375) ;
#430=AXIS2_PLACEMENT_3D('Plane Axis2P3D',#427,#428,#429) ;
#473=AXIS2_PLACEMENT_3D('Plane Axis2P3D',#470,#471,#472) ;
#99=LINE('Line',#96,#98) ;
#104=LINE('Line',#101,#103) ;
#216=LINE('Line',#213,#215) ;
#230=LINE('Line',#227,#229) ;
#259=LINE('Line',#256,#258) ;
#266=LINE('Line',#263,#265) ;
#273=LINE('Line',#270,#272) ;
#280=LINE('Line',#277,#279) ;
#287=LINE('Line',#284,#286) ;
#294=LINE('Line',#291,#293) ;
#301=LINE('Line',#298,#300) ;
#322=LINE('Line',#319,#321) ;
#338=LINE('Line',#335,#337) ;
#345=LINE('Line',#342,#344) ;
#352=LINE('Line',#349,#351) ;
#359=LINE('Line',#356,#358) ;
#381=LINE('Line',#378,#380) ;
#386=LINE('Line',#383,#385) ;
#393=LINE('Line',#390,#392) ;
#400=LINE('Line',#397,#399) ;
#407=LINE('Line',#404,#406) ;
#435=LINE('Line',#432,#434) ;
#440=LINE('Line',#437,#439) ;
#445=LINE('Line',#442,#444) ;
#39=CIRCLE('generated circle',#38,4.97106781187) ;
#48=CIRCLE('generated circle',#47,4.97106781187) ;
#57=CIRCLE('generated circle',#56,3.) ;
#66=CIRCLE('generated circle',#65,3.) ;
#81=CIRCLE('generated circle',#80,5.87106781187) ;
#121=CIRCLE('generated circle',#120,5.87106781187) ;
#153=CIRCLE('generated circle',#152,5.87106781187) ;
#179=CIRCLE('generated circle',#178,5.87106781187) ;
#223=CIRCLE('generated circle',#222,3.) ;
#242=CIRCLE('generated circle',#241,3.) ;
#35=PLANE('',#34) ;
#255=PLANE('',#254) ;
#318=PLANE('',#317) ;
#334=PLANE('',#333) ;
#377=PLANE('',#376) ;
#431=PLANE('',#430) ;
#474=PLANE('',#473) ;
#212=CYLINDRICAL_SURFACE('generated cylinder',#211,3.) ;
#77=CONICAL_SURFACE('Cone',#76,4.97106781187,0.785398163397) ;
#71=FACE_BOUND('',#68,.T.) ;
#484=FACE_BOUND('',#481,.T.) ;
#44=EDGE_CURVE('',#41,#43,#39,.T.) ;
#49=EDGE_CURVE('',#43,#41,#48,.T.) ;
#62=EDGE_CURVE('',#59,#61,#57,.T.) ;
#67=EDGE_CURVE('',#61,#59,#66,.T.) ;
#86=EDGE_CURVE('',#83,#85,#81,.T.) ;
#95=EDGE_CURVE('',#94,#85,#87,.T.) ;
#100=EDGE_CURVE('',#94,#41,#99,.F.) ;
#107=EDGE_CURVE('',#106,#43,#104,.F.) ;
#117=EDGE_CURVE('',#106,#116,#108,.T.) ;
#124=EDGE_CURVE('',#116,#123,#121,.T.) ;
#138=EDGE_CURVE('',#83,#123,#125,.T.) ;
#158=EDGE_CURVE('',#155,#157,#153,.T.) ;
#165=EDGE_CURVE('',#106,#157,#159,.T.) ;
#175=EDGE_CURVE('',#94,#174,#166,.T.) ;
#182=EDGE_CURVE('',#174,#181,#179,.T.) ;
#196=EDGE_CURVE('',#181,#155,#183,.T.) ;
#219=EDGE_CURVE('',#218,#59,#216,.T.) ;
#226=EDGE_CURVE('',#225,#218,#223,.T.) ;
#231=EDGE_CURVE('',#225,#61,#230,.T.) ;
#243=EDGE_CURVE('',#218,#225,#242,.T.) ;
#262=EDGE_CURVE('',#261,#123,#259,.F.) ;
#269=EDGE_CURVE('',#268,#261,#266,.T.) ;
#276=EDGE_CURVE('',#275,#268,#273,.T.) ;
#283=EDGE_CURVE('',#275,#282,#280,.F.) ;
#290=EDGE_CURVE('',#282,#289,#287,.T.) ;
#297=EDGE_CURVE('',#289,#296,#294,.T.) ;
#302=EDGE_CURVE('',#83,#296,#301,.F.) ;
#323=EDGE_CURVE('',#116,#261,#322,.F.) ;
#341=EDGE_CURVE('',#340,#157,#338,.F.) ;
#348=EDGE_CURVE('',#347,#340,#345,.T.) ;
#355=EDGE_CURVE('',#354,#347,#352,.T.) ;
#360=EDGE_CURVE('',#354,#275,#359,.F.) ;
#382=EDGE_CURVE('',#296,#85,#381,.F.) ;
#389=EDGE_CURVE('',#282,#388,#386,.F.) ;
#396=EDGE_CURVE('',#388,#395,#393,.T.) ;
#403=EDGE_CURVE('',#395,#402,#400,.T.) ;
#408=EDGE_CURVE('',#174,#402,#407,.F.) ;
#436=EDGE_CURVE('',#402,#181,#435,.F.) ;
#441=EDGE_CURVE('',#388,#354,#440,.F.) ;
#446=EDGE_CURVE('',#155,#340,#445,.F.) ;
#30=CLOSED_SHELL('Closed Shell',(#72,#149,#207,#238,#250,#313,#329,#372,#420,#426,#457,#463,#469,#485)) ;
#487=SHAPE_REPRESENTATION_RELATIONSHIP(' ',' ',#19,#486) ;
#50=EDGE_LOOP('',(#51,#52)) ;
#68=EDGE_LOOP('',(#69,#70)) ;
#139=EDGE_LOOP('',(#140,#141,#142,#143,#144,#145,#146,#147)) ;
#197=EDGE_LOOP('',(#198,#199,#200,#201,#202,#203,#204,#205)) ;
#232=EDGE_LOOP('',(#233,#234,#235,#236)) ;
#244=EDGE_LOOP('',(#245,#246,#247,#248)) ;
#303=EDGE_LOOP('',(#304,#305,#306,#307,#308,#309,#310,#311)) ;
#324=EDGE_LOOP('',(#325,#326,#327)) ;
#361=EDGE_LOOP('',(#362,#363,#364,#365,#366,#367,#368,#369,#370)) ;
#409=EDGE_LOOP('',(#410,#411,#412,#413,#414,#415,#416,#417,#418)) ;
#421=EDGE_LOOP('',(#422,#423,#424)) ;
#447=EDGE_LOOP('',(#448,#449,#450,#451,#452,#453,#454,#455)) ;
#458=EDGE_LOOP('',(#459,#460,#461)) ;
#464=EDGE_LOOP('',(#465,#466,#467)) ;
#475=EDGE_LOOP('',(#476,#477,#478,#479)) ;
#481=EDGE_LOOP('',(#482,#483)) ;
#51=ORIENTED_EDGE('',*,*,#44,.T.) ;
#52=ORIENTED_EDGE('',*,*,#49,.T.) ;
#69=ORIENTED_EDGE('',*,*,#62,.F.) ;
#70=ORIENTED_EDGE('',*,*,#67,.F.) ;
#140=ORIENTED_EDGE('',*,*,#86,.T.) ;
#141=ORIENTED_EDGE('',*,*,#95,.F.) ;
#142=ORIENTED_EDGE('',*,*,#100,.T.) ;
#143=ORIENTED_EDGE('',*,*,#49,.F.) ;
#144=ORIENTED_EDGE('',*,*,#107,.F.) ;
#145=ORIENTED_EDGE('',*,*,#117,.T.) ;
#146=ORIENTED_EDGE('',*,*,#124,.T.) ;
#147=ORIENTED_EDGE('',*,*,#138,.F.) ;
#198=ORIENTED_EDGE('',*,*,#158,.T.) ;
#199=ORIENTED_EDGE('',*,*,#165,.F.) ;
#200=ORIENTED_EDGE('',*,*,#107,.T.) ;
#201=ORIENTED_EDGE('',*,*,#44,.F.) ;
#202=ORIENTED_EDGE('',*,*,#100,.F.) ;
#203=ORIENTED_EDGE('',*,*,#175,.T.) ;
#204=ORIENTED_EDGE('',*,*,#182,.T.) ;
#205=ORIENTED_EDGE('',*,*,#196,.T.) ;
#233=ORIENTED_EDGE('',*,*,#67,.T.) ;
#234=ORIENTED_EDGE('',*,*,#219,.F.) ;
#235=ORIENTED_EDGE('',*,*,#226,.F.) ;
#236=ORIENTED_EDGE('',*,*,#231,.T.) ;
#245=ORIENTED_EDGE('',*,*,#62,.T.) ;
#246=ORIENTED_EDGE('',*,*,#231,.F.) ;
#247=ORIENTED_EDGE('',*,*,#243,.F.) ;
#248=ORIENTED_EDGE('',*,*,#219,.T.) ;
#304=ORIENTED_EDGE('',*,*,#138,.T.) ;
#305=ORIENTED_EDGE('',*,*,#262,.F.) ;
#306=ORIENTED_EDGE('',*,*,#269,.F.) ;
#307=ORIENTED_EDGE('',*,*,#276,.F.) ;
#308=ORIENTED_EDGE('',*,*,#283,.T.) ;
#309=ORIENTED_EDGE('',*,*,#290,.T.) ;
#310=ORIENTED_EDGE('',*,*,#297,.T.) ;
#311=ORIENTED_EDGE('',*,*,#302,.F.) ;
#325=ORIENTED_EDGE('',*,*,#124,.F.) ;
#326=ORIENTED_EDGE('',*,*,#323,.T.) ;
#327=ORIENTED_EDGE('',*,*,#262,.T.) ;
#362=ORIENTED_EDGE('',*,*,#117,.F.) ;
#363=ORIENTED_EDGE('',*,*,#165,.T.) ;
#364=ORIENTED_EDGE('',*,*,#341,.F.) ;
#365=ORIENTED_EDGE('',*,*,#348,.F.) ;
#366=ORIENTED_EDGE('',*,*,#355,.F.) ;
#367=ORIENTED_EDGE('',*,*,#360,.T.) ;
#368=ORIENTED_EDGE('',*,*,#276,.T.) ;
#369=ORIENTED_EDGE('',*,*,#269,.T.) ;
#370=ORIENTED_EDGE('',*,*,#323,.F.) ;
#410=ORIENTED_EDGE('',*,*,#175,.F.) ;
#411=ORIENTED_EDGE('',*,*,#95,.T.) ;
#412=ORIENTED_EDGE('',*,*,#382,.F.) ;
#413=ORIENTED_EDGE('',*,*,#297,.F.) ;
#414=ORIENTED_EDGE('',*,*,#290,.F.) ;
#415=ORIENTED_EDGE('',*,*,#389,.T.) ;
#416=ORIENTED_EDGE('',*,*,#396,.T.) ;
#417=ORIENTED_EDGE('',*,*,#403,.T.) ;
#418=ORIENTED_EDGE('',*,*,#408,.F.) ;
#422=ORIENTED_EDGE('',*,*,#382,.T.) ;
#423=ORIENTED_EDGE('',*,*,#86,.F.) ;
#424=ORIENTED_EDGE('',*,*,#302,.T.) ;
#448=ORIENTED_EDGE('',*,*,#196,.F.) ;
#449=ORIENTED_EDGE('',*,*,#436,.F.) ;
#450=ORIENTED_EDGE('',*,*,#403,.F.) ;
#451=ORIENTED_EDGE('',*,*,#396,.F.) ;
#452=ORIENTED_EDGE('',*,*,#441,.T.) ;
#453=ORIENTED_EDGE('',*,*,#355,.T.) ;
#454=ORIENTED_EDGE('',*,*,#348,.T.) ;
#455=ORIENTED_EDGE('',*,*,#446,.F.) ;
#459=ORIENTED_EDGE('',*,*,#436,.T.) ;
#460=ORIENTED_EDGE('',*,*,#182,.F.) ;
#461=ORIENTED_EDGE('',*,*,#408,.T.) ;
#465=ORIENTED_EDGE('',*,*,#341,.T.) ;
#466=ORIENTED_EDGE('',*,*,#158,.F.) ;
#467=ORIENTED_EDGE('',*,*,#446,.T.) ;
#476=ORIENTED_EDGE('',*,*,#441,.F.) ;
#477=ORIENTED_EDGE('',*,*,#389,.F.) ;
#478=ORIENTED_EDGE('',*,*,#283,.F.) ;
#479=ORIENTED_EDGE('',*,*,#360,.F.) ;
#482=ORIENTED_EDGE('',*,*,#226,.T.) ;
#483=ORIENTED_EDGE('',*,*,#243,.T.) ;
#21=MANIFOLD_SOLID_BREP('\X2\51E04F554F53\X0\.2',#30) ;
#41=VERTEX_POINT('',#40) ;
#43=VERTEX_POINT('',#42) ;
#59=VERTEX_POINT('',#58) ;
#61=VERTEX_POINT('',#60) ;
#83=VERTEX_POINT('',#82) ;
#85=VERTEX_POINT('',#84) ;
#94=VERTEX_POINT('',#93) ;
#106=VERTEX_POINT('',#105) ;
#116=VERTEX_POINT('',#115) ;
#123=VERTEX_POINT('',#122) ;
#155=VERTEX_POINT('',#154) ;
#157=VERTEX_POINT('',#156) ;
#174=VERTEX_POINT('',#173) ;
#181=VERTEX_POINT('',#180) ;
#218=VERTEX_POINT('',#217) ;
#225=VERTEX_POINT('',#224) ;
#261=VERTEX_POINT('',#260) ;
#268=VERTEX_POINT('',#267) ;
#275=VERTEX_POINT('',#274) ;
#282=VERTEX_POINT('',#281) ;
#289=VERTEX_POINT('',#288) ;
#296=VERTEX_POINT('',#295) ;
#340=VERTEX_POINT('',#339) ;
#347=VERTEX_POINT('',#346) ;
#354=VERTEX_POINT('',#353) ;
#388=VERTEX_POINT('',#387) ;
#395=VERTEX_POINT('',#394) ;
#402=VERTEX_POINT('',#401) ;
#486=ADVANCED_BREP_SHAPE_REPRESENTATION('NONE',(#21),#16) ;
#72=ADVANCED_FACE('\X2\51E04F554F53\X0\.2',(#53,#71),#35,.T.) ;
#149=ADVANCED_FACE('\X2\51E04F554F53\X0\.2',(#148),#77,.F.) ;
#207=ADVANCED_FACE('\X2\51E04F554F53\X0\.2',(#206),#77,.F.) ;
#238=ADVANCED_FACE('\X2\51E04F554F53\X0\.2',(#237),#212,.F.) ;
#250=ADVANCED_FACE('\X2\51E04F554F53\X0\.2',(#249),#212,.F.) ;
#313=ADVANCED_FACE('\X2\51E04F554F53\X0\.2',(#312),#255,.F.) ;
#329=ADVANCED_FACE('\X2\51E04F554F53\X0\.2',(#328),#318,.T.) ;
#372=ADVANCED_FACE('\X2\51E04F554F53\X0\.2',(#371),#334,.F.) ;
#420=ADVANCED_FACE('\X2\51E04F554F53\X0\.2',(#419),#377,.F.) ;
#426=ADVANCED_FACE('\X2\51E04F554F53\X0\.2',(#425),#318,.T.) ;
#457=ADVANCED_FACE('\X2\51E04F554F53\X0\.2',(#456),#431,.F.) ;
#463=ADVANCED_FACE('\X2\51E04F554F53\X0\.2',(#462),#318,.T.) ;
#469=ADVANCED_FACE('\X2\51E04F554F53\X0\.2',(#468),#318,.T.) ;
#485=ADVANCED_FACE('\X2\51E04F554F53\X0\.2',(#480,#484),#474,.F.) ;
#4=APPLICATION_PROTOCOL_DEFINITION('international standard','ap242_managed_model_based_3d_engineering',2014,#1) ;
#87=B_SPLINE_CURVE_WITH_KNOTS('',4,(#88,#89,#90,#91,#92),.UNSPECIFIED.,.F.,.U.,(5,5),(0.,26.7105131167),.UNSPECIFIED.) ;
#108=B_SPLINE_CURVE_WITH_KNOTS('',5,(#109,#110,#111,#112,#113,#114),.UNSPECIFIED.,.F.,.U.,(6,6),(0.,83.8955946404),.UNSPECIFIED.) ;
#125=B_SPLINE_CURVE_WITH_KNOTS('',5,(#126,#127,#128,#129,#130,#131,#132,#133,#134,#135,#136,#137),.UNSPECIFIED.,.F.,.U.,(6,3,3,6),(0.,28.1051831004,77.1655867533,110.635506792),.UNSPECIFIED.) ;
#159=B_SPLINE_CURVE_WITH_KNOTS('',4,(#160,#161,#162,#163,#164),.UNSPECIFIED.,.F.,.U.,(5,5),(0.,26.7105131173),.UNSPECIFIED.) ;
#166=B_SPLINE_CURVE_WITH_KNOTS('',5,(#167,#168,#169,#170,#171,#172),.UNSPECIFIED.,.F.,.U.,(6,6),(0.,83.8955946541),.UNSPECIFIED.) ;
#183=B_SPLINE_CURVE_WITH_KNOTS('',5,(#184,#185,#186,#187,#188,#189,#190,#191,#192,#193,#194,#195),.UNSPECIFIED.,.F.,.U.,(6,3,3,6),(0.,28.105183104,77.1655867651,110.635506802),.UNSPECIFIED.) ;
#22=COLOUR_RGB('Colour',0.823529411765,0.823529411765,1.) ;
#53=FACE_OUTER_BOUND('',#50,.T.) ;
#148=FACE_OUTER_BOUND('',#139,.T.) ;
#206=FACE_OUTER_BOUND('',#197,.T.) ;
#237=FACE_OUTER_BOUND('',#232,.T.) ;
#249=FACE_OUTER_BOUND('',#244,.T.) ;
#312=FACE_OUTER_BOUND('',#303,.T.) ;
#328=FACE_OUTER_BOUND('',#324,.T.) ;
#371=FACE_OUTER_BOUND('',#361,.T.) ;
#419=FACE_OUTER_BOUND('',#409,.T.) ;
#425=FACE_OUTER_BOUND('',#421,.T.) ;
#456=FACE_OUTER_BOUND('',#447,.T.) ;
#462=FACE_OUTER_BOUND('',#458,.T.) ;
#468=FACE_OUTER_BOUND('',#464,.T.) ;
#480=FACE_OUTER_BOUND('',#475,.T.) ;
#9=PRODUCT_CATEGORY_RELATIONSHIP(' ',' ',#7,#8) ;
#6=PRODUCT_DEFINITION_FORMATION_WITH_SPECIFIED_SOURCE('',' ',#5,.NOT_KNOWN.) ;
#20=SHAPE_DEFINITION_REPRESENTATION(#11,#19) ;
#12=(LENGTH_UNIT()NAMED_UNIT(*)SI_UNIT(.MILLI.,.METRE.)) ;
#13=(NAMED_UNIT(*)PLANE_ANGLE_UNIT()SI_UNIT($,.RADIAN.)) ;
#14=(NAMED_UNIT(*)SI_UNIT($,.STERADIAN.)SOLID_ANGLE_UNIT()) ;
#16=(GEOMETRIC_REPRESENTATION_CONTEXT(3)GLOBAL_UNCERTAINTY_ASSIGNED_CONTEXT((#15))GLOBAL_UNIT_ASSIGNED_CONTEXT((#12,#13,#14))REPRESENTATION_CONTEXT(' ',' ')) ;
ENDSEC;
END-ISO-10303-21;
